<?xml version="1.0" encoding="utf-8"?>
<!-- Generator: Adobe Illustrator 13.0.1, SVG Export Plug-In . SVG Version: 6.00 Build 14948)  -->
<!DOCTYPE svg PUBLIC "-//W3C//DTD SVG 1.1//EN" "http://www.w3.org/Graphics/SVG/1.1/DTD/svg11.dtd">
<svg version="1.1" id="Livello_1" xmlns="http://www.w3.org/2000/svg" xmlns:xlink="http://www.w3.org/1999/xlink" x="0px" y="0px"
	 width="800px" height="800px" viewBox="0 0 800 800" enable-background="new 0 0 800 800" xml:space="preserve">
<g id="Emblema_1_">
	<g id="Emblema">
		<g>
			<path fill="#FFFFFF" d="M787.045,400.019c0,213.766-173.291,387.056-387.056,387.056c-213.769,0-387.061-173.29-387.061-387.056
				c0-213.759,173.292-387.053,387.061-387.053C613.754,12.966,787.045,186.26,787.045,400.019z"/>
			<path fill="#CC0000" d="M9,400.019C9,184.087,184.049,9.038,399.987,9.038l0,0c215.932,0,390.981,175.049,390.987,390.981l0,0
				c-0.006,215.931-175.055,390.974-390.987,390.98l0,0C184.049,790.993,9,615.95,9,400.019L9,400.019z M129.073,129.109
				c-69.343,69.343-112.217,165.1-112.217,270.91l0,0c0,105.809,42.874,201.565,112.217,270.91l0,0
				c69.342,69.337,165.098,112.218,270.914,112.218l0,0c105.809,0,201.566-42.881,270.917-112.218l0,0
				c69.336-69.345,112.209-165.101,112.209-270.91l0,0c0-105.81-42.873-201.567-112.209-270.91l0,0
				C601.553,59.772,505.796,16.892,399.987,16.892l0,0C294.171,16.892,198.415,59.772,129.073,129.109L129.073,129.109z"/>
		</g>
		<g>
			<g id="CerchioPiccolo">
				<path fill="#CC0000" d="M140.557,400.02c0.005-142.693,116.162-258.337,259.438-258.337l0,0
					c143.255,0,259.417,115.644,259.421,258.337l0,0c-0.004,142.681-116.166,258.333-259.421,258.338l0,0
					C256.719,658.354,140.562,542.709,140.557,400.02L140.557,400.02z M222.09,222.905
					c-45.532,45.345-73.677,107.935-73.677,177.115l0,0c0,69.177,28.145,131.766,73.677,177.112l0,0
					c45.542,45.331,108.414,73.368,177.904,73.368l0,0c69.48,0,132.352-28.037,177.885-73.368l0,0
					c45.528-45.346,73.676-107.935,73.676-177.112l0,0c0-69.18-28.147-131.77-73.676-177.115l0,0
					c-45.533-45.335-108.405-73.365-177.885-73.365l0,0C330.504,149.54,267.632,177.57,222.09,222.905L222.09,222.905z"/>
			</g>
			<g>
				<polygon fill="#CC0000" points="586.996,336.963 463.048,336.963 463.048,213.018 336.926,213.018 336.926,336.963 
					212.98,336.963 212.98,463.076 336.926,463.076 336.926,587.021 463.048,587.021 463.048,463.076 586.996,463.076 				"/>
			</g>
		</g>
		<g id="Stella">
			<g>
				<path fill-rule="evenodd" clip-rule="evenodd" fill="#CC0000" d="M400.372,674.625c0,0.257,0,0.514,0,0.771
					c0,0.09-0.06,0.723,0,0.774c0.075,0.06,0.747-0.078,0.772,0c0.07,0.194,0,0.563,0,0.772c0,0.259,0,0.514,0,0.771
					c0,0.257,0,0.515,0,0.771c0,0.092-0.06,0.724,0,0.776c0.076,0.058,0.751-0.081,0.773,0c0.068,0.188,0,0.563,0,0.769
					c0,0.258,0,0.515,0,0.772c0,0.517,0,1.03,0,1.546c0,0.257,0,0.515,0,0.772c0.153,0.1,0.646-0.131,0.775,0
					c0.091,0.096-0.036,0.638,0,0.774c0.056,0.216,0,0.544,0,0.768c0,0.258,0,0.518,0,0.775c0.099,0.153-0.13,0.645,0,0.774
					c0.104,0.105,0.689-0.126,0.771,0c0.095,0.144-0.035,0.593,0,0.767c0.043,0.236,0,0.537,0,0.775c0,0.259,0,0.517,0,0.774
					c0.1,0.155-0.133,0.642,0,0.771c0.081,0.082,0.727-0.094,0.771,0c0.069,0.171,0,0.586,0,0.775c0,0.217-0.061,0.558,0,0.766
					c0.057,0.216,0,0.56,0,0.775c0,0.093-0.061,0.724,0,0.774c0.151,0.127,0.599-0.104,0.772,0c0,0.51,0,1.025,0,1.543
					c0,0.516,0,1.033,0,1.544c0.153,0.102,0.642-0.128,0.772,0c0.093,0.098-0.036,0.638,0,0.775c0.051,0.22,0,0.544,0,0.774
					c0,0.229-0.051,0.541,0,0.768c0.049,0.227,0,0.541,0,0.775c0,0.183-0.073,0.6,0,0.769c0.041,0.099,0.69-0.079,0.768,0
					c0.133,0.131-0.101,0.619,0,0.772c0,0.517,0,1.032,0,1.546c0.107,0.154-0.125,0.646,0,0.773c0.113,0.107,0.693-0.125,0.775,0
					c0.1,0.152-0.04,0.595,0,0.774c0.048,0.225,0,0.537,0,0.771c0,0.258,0,0.513,0,0.772c0,0.195-0.069,0.587,0,0.774
					c0.032,0.086,0.697-0.077,0.774,0c0.071,0.069-0.01,0.658,0,0.77c0.007,0.176-0.085,0.621,0,0.771
					c0.062,0.114,0.678-0.095,0.771,0c0.127,0.131-0.104,0.618,0,0.772c1.028,0,2.062,0,3.09,0c0.516,0,1.026,0,1.545,0
					c0.256,0,0.514,0,0.771,0c1.031,0,2.061,0,3.092,0c0.512,0,1.027,0,1.541,0c0.515,0,1.028,0,1.544,0c0.261,0,0.516,0,0.774,0
					c0.516,0,1.03,0,1.547,0c0.514,0,1.029,0,1.541,0c0.259,0,0.517,0,0.773,0c0.516,0,1.026,0,1.544,0c1.032,0,2.062,0,3.094,0
					c0.515,0,1.028,0,1.543,0c-0.106,0.154,0.127,0.645,0,0.774c-0.13,0.129-0.646-0.13-0.775,0c-0.129,0.129,0.13,0.642,0,0.774
					c-0.12,0.127-0.653-0.133-0.768,0c-0.128,0.137,0.127,0.638,0,0.769c-0.113,0.11-0.692-0.12-0.771,0
					c-0.108,0.155,0.127,0.639,0,0.775c-0.128,0.127-0.65-0.131-0.775,0c-0.107,0.106,0.123,0.685,0,0.771
					c-0.153,0.104-0.645-0.128-0.775,0c-0.127,0.127,0.131,0.642,0,0.77c-0.107,0.109-0.69-0.123-0.771,0
					c-0.107,0.162,0.134,0.63,0,0.774c-0.123,0.137,0.134,0.641,0,0.771c-0.107,0.107-0.688-0.12-0.772,0
					c-0.103,0.153,0.134,0.646,0,0.774c-0.128,0.128-0.643-0.129-0.771,0c-0.108,0.107,0.122,0.693,0,0.775
					c-0.155,0.1-0.646-0.133-0.773,0c-0.128,0.125,0.128,0.639,0,0.769c-0.107,0.108-0.688-0.122-0.77,0
					c-0.104,0.151,0.124,0.643,0,0.773c-0.131,0.127-0.647-0.131-0.771,0c-0.11,0.109,0.12,0.688,0,0.774
					c-0.152,0.098-0.653-0.131-0.772,0c-0.13,0.13,0.127,0.642,0,0.768c-0.13,0.133-0.647-0.126-0.774,0
					c-0.129,0.133,0.127,0.646,0,0.775c-0.126,0.124-0.655-0.131-0.774,0c-0.127,0.137,0.134,0.638,0,0.769
					c-0.105,0.11-0.69-0.121-0.771,0c-0.104,0.159,0.134,0.645,0,0.774c-0.127,0.131-0.645-0.125-0.772,0
					c-0.107,0.107,0.124,0.693,0,0.775c-0.153,0.1-0.644-0.133-0.771,0c-0.127,0.125,0.128,0.64,0,0.769
					c-0.11,0.107-0.688-0.121-0.77,0c-0.105,0.159,0.125,0.639,0,0.772c-0.125,0.132-0.647-0.127-0.773,0
					c-0.108,0.11,0.12,0.69,0,0.774c-0.154,0.104-0.646-0.13-0.773,0c-0.129,0.13,0.127,0.644,0,0.768
					c-0.106,0.111-0.689-0.117-0.773,0c-0.106,0.164,0.129,0.63,0,0.776c-0.117,0.133-0.648-0.124-0.771,0
					c-0.108,0.109,0.123,0.69,0,0.771c-0.128,0.09-0.685-0.115-0.771,0c-0.078,0.101,0,0.642,0,0.772c0,0.094,0.061,0.724,0,0.774
					c-0.154,0.126-0.599-0.099-0.776,0c0,0.517,0,1.031,0,1.545c0.156,0.102,0.648-0.131,0.776,0c0.091,0.096-0.034,0.634,0,0.772
					c0.055,0.22,0,0.542,0,0.771s-0.053,0.542,0,0.77c0.048,0.225,0,0.543,0,0.772c0,0.192-0.075,0.607,0,0.775
					c0.041,0.097,0.689-0.082,0.771,0c0.127,0.128-0.103,0.616,0,0.771c0,0.517,0,1.031,0,1.548c0.103,0.151-0.128,0.643,0,0.77
					c0.107,0.109,0.69-0.123,0.771,0c0.098,0.146-0.03,0.599,0,0.771c0.046,0.235,0,0.531,0,0.772c0,0.256,0,0.514,0,0.771
					c0,0.257,0,0.515,0,0.773c0,0.093-0.062,0.724,0,0.775c0.155,0.125,0.6-0.104,0.773,0c0,0.514,0,1.027,0,1.544
					c0,0.258,0,0.516,0,0.772c0,0.511,0,1.028,0,1.542c0.154,0.104,0.642-0.128,0.773,0c0.07,0.073-0.007,0.659,0,0.775
					c0.013,0.252-0.017,0.511,0,0.769c0.013,0.258,0,0.518,0,0.775s0,0.516,0,0.775c0.152,0.097,0.644-0.131,0.773,0
					c0.095,0.092-0.038,0.631,0,0.769c0.054,0.222,0,0.544,0,0.775c0,0.232-0.052,0.542,0,0.768c0.044,0.232,0,0.538,0,0.774
					c0,0.092-0.064,0.721,0,0.772c0.151,0.122,0.596-0.104,0.77,0c0,0.511,0,1.028,0,1.544c0,0.212-0.06,0.567,0,0.774
					c0.043,0.141-0.102,0.671,0,0.77c0.128,0.129,0.618-0.102,0.771,0c0,0.518,0,1.034,0,1.546c0,0.258,0,0.516,0,0.771
					c0,0.23-0.051,0.55,0,0.772c0.034,0.138-0.092,0.683,0,0.771c0.108,0.107,0.69-0.122,0.772,0c0.119,0.18-0.096,0.579,0,0.772
					c0,0.517,0,1.031,0,1.548c0,0.258,0,0.516,0,0.771c-0.152-0.104-0.645,0.128-0.772,0c-0.107-0.106,0.124-0.689,0-0.771
					c-0.163-0.113-0.618,0.125-0.771,0c-0.127-0.113,0.123-0.655,0-0.773c-0.117-0.12-0.671,0.131-0.77,0
					c-0.12-0.15,0.131-0.641,0-0.774c-0.083-0.079-0.734,0.1-0.773,0c-0.075-0.171,0-0.585,0-0.772c0-0.258,0-0.516,0-0.771
					c-0.154-0.101-0.646,0.133-0.773,0c-0.106-0.11,0.122-0.69,0-0.772c-0.169-0.107-0.621,0.13-0.773,0
					c-0.132-0.107,0.123-0.65,0-0.771c-0.127-0.131-0.645,0.127-0.771,0c-0.128-0.131,0.127-0.643,0-0.771
					c-0.108-0.109-0.69,0.118-0.771,0c-0.112-0.171,0.13-0.621,0-0.775c-0.108-0.13-0.649,0.123-0.776,0
					c-0.124-0.13,0.131-0.643,0-0.77c-0.124-0.13-0.641,0.127-0.769,0c-0.11-0.11,0.122-0.693,0-0.774
					c-0.169-0.111-0.619,0.131-0.772,0c-0.13-0.11,0.122-0.648,0-0.775c-0.13-0.124-0.644,0.134-0.773,0
					c-0.13-0.124,0.13-0.638,0-0.769c-0.108-0.11-0.689,0.122-0.771,0c-0.111-0.169,0.126-0.619,0-0.772
					c-0.111-0.129-0.655,0.122-0.772,0c-0.13-0.129,0.101-0.618,0-0.774c-0.153-0.103-0.645,0.13-0.771,0
					c-0.131-0.13,0.127-0.643,0-0.768c-0.131-0.134-0.643,0.125-0.774,0c-0.125-0.125,0.132-0.658,0-0.775
					c-0.139-0.125-0.643,0.13-0.775,0c-0.105-0.11,0.127-0.69,0-0.769c-0.173-0.124-0.577,0.092-0.768,0
					c-0.105-0.162,0.129-0.647,0-0.775c-0.131-0.13-0.644,0.128-0.772,0c-0.13-0.13,0.129-0.645,0-0.775
					c-0.13-0.125-0.621,0.105-0.772,0c-0.106-0.153,0.127-0.638,0-0.769c-0.109-0.11-0.69,0.122-0.771,0
					c-0.104-0.155,0.125-0.645,0-0.775c-0.133-0.128-0.645,0.131-0.771,0c-0.108-0.106,0.12-0.69,0-0.773
					c-0.183-0.117-0.579,0.095-0.775,0c-0.1-0.153,0.131-0.642,0-0.769c-0.107-0.107-0.69,0.12-0.773,0
					c-0.11-0.169,0.128-0.621,0-0.772c-0.105-0.133-0.647,0.12-0.772,0c-0.058-0.059,0.065-0.759,0-0.774
					c-0.077-0.017-0.719-0.046-0.772,0c-0.127,0.127,0.106,0.618,0,0.774c-0.153,0.101-0.643-0.133-0.771,0
					c-0.108,0.107,0.125,0.69,0,0.772c-0.178,0.117-0.579-0.098-0.772,0c-0.101,0.153,0.128,0.641,0,0.769
					c-0.109,0.113-0.688-0.119-0.771,0c-0.112,0.169,0.127,0.622,0,0.773c-0.111,0.131-0.651-0.12-0.771,0
					c-0.13,0.131,0.125,0.64,0,0.775c-0.123,0.131-0.647-0.129-0.773,0c-0.13,0.131,0.127,0.644,0,0.769
					c-0.13,0.131-0.646-0.125-0.775,0c-0.129,0.134,0.129,0.643,0,0.775c-0.125,0.128-0.643-0.13-0.772,0
					c-0.129,0.128,0.129,0.645,0,0.775c-0.129,0.121-0.643-0.131-0.772,0c-0.127,0.121,0.129,0.639,0,0.769
					c-0.127,0.128-0.645-0.13-0.771,0c-0.129,0.128,0.126,0.642,0,0.775c-0.129,0.125-0.646-0.134-0.775,0
					c-0.129,0.125,0.103,0.614,0,0.768c-0.153,0.104-0.642-0.13-0.771,0c-0.107,0.111,0.125,0.69,0,0.774
					c-0.155,0.104-0.643-0.129-0.772,0c-0.129,0.13,0.129,0.646,0,0.772c-0.108,0.109-0.692-0.123-0.773,0
					c-0.119,0.176,0.094,0.577,0,0.769c-0.153,0.104-0.643-0.124-0.773,0c-0.106,0.107,0.125,0.693,0,0.775
					c-0.177,0.118-0.577-0.095-0.771,0c-0.103,0.153,0.129,0.645,0,0.774c-0.108,0.108-0.69-0.127-0.773,0
					c-0.118,0.173,0.096,0.579,0,0.77c-0.153,0.104-0.643-0.13-0.771,0c-0.109,0.107,0.122,0.69,0,0.775
					c-0.179,0.115-0.58-0.097-0.773,0c-0.103,0.151,0.129,0.64,0,0.771c-0.109,0.111-0.69-0.121-0.771,0
					c-0.112,0.169,0.127,0.618,0,0.771c-0.109,0.13-0.651-0.123-0.774,0c-0.13,0.13,0.127,0.639,0,0.772
					c-0.122,0.133-0.645-0.125-0.771,0c-0.129,0.133,0.127,0.644,0,0.771c-0.129,0.13-0.646-0.128-0.775,0
					c-0.123,0.126,0.13,0.653,0,0.772c-0.135,0.129-0.64-0.131-0.771,0c-0.129,0.131,0.129,0.647,0,0.774
					c-0.129,0.131-0.643-0.127-0.772,0c-0.115,0.113,0.125,0.681,0,0.773c-0.152,0.106-0.642-0.133-0.772,0
					c-0.056,0.054,0.059,0.759,0,0.771c-0.083,0.014-0.722,0.051-0.775,0c-0.128-0.13,0.105-0.618,0-0.771
					c0.102-0.179-0.123-0.614,0-0.773c0.105-0.134,0.655,0.118,0.775,0c0.095-0.095-0.036-0.636,0-0.774c0.053-0.22,0-0.547,0-0.772
					c0-0.258,0-0.516,0-0.771c0-0.515,0-1.028,0-1.544c0.154-0.105,0.643,0.127,0.772,0c0.073-0.072-0.009-0.658,0-0.771
					c0.014-0.258-0.012-0.517,0-0.775c0-0.256,0-0.514,0-0.77c0-0.092-0.062-0.723,0-0.774c0.073-0.059,0.745,0.078,0.772,0
					c0.065-0.196,0-0.564,0-0.775c0-0.217-0.061-0.557,0-0.769c0.057-0.216,0-0.554,0-0.772c0-0.09-0.062-0.725,0-0.774
					c0.074-0.06,0.745,0.079,0.771,0c0.067-0.188,0-0.563,0-0.768c0-0.258,0-0.518,0-0.775c0-0.515,0-1.028,0-1.544
					c0.155-0.104,0.646,0.128,0.775,0c0.072-0.078-0.007-0.66,0-0.775c0.011-0.258-0.012-0.517,0-0.769c0-0.26,0-0.518,0-0.775
					c0-0.228-0.056-0.549,0-0.773c0.033-0.138-0.096-0.677,0-0.769c0.127-0.131,0.618,0.102,0.771,0c0-0.515,0-1.03,0-1.547
					c0-0.256,0-0.512,0-0.77c0.104-0.156-0.129-0.647,0-0.775c0.083-0.082,0.732,0.097,0.774,0c0.072-0.169,0-0.582,0-0.773
					c0-0.219-0.061-0.56,0-0.771c0.06-0.209,0-0.55,0-0.772c0-0.089-0.062-0.72,0-0.771c0.154-0.126,0.597,0.102,0.771,0
					c0-1.028,0-2.059,0-3.089c0.153-0.103,0.645,0.128,0.773,0c0.095-0.095-0.034-0.634,0-0.775c0.054-0.22,0-0.542,0-0.772
					c0-0.231-0.05-0.547,0-0.77c0.05-0.224,0-0.539,0-0.771c0-0.191-0.074-0.602,0-0.772c0.04-0.1,0.692,0.079,0.771,0
					c0.129-0.131-0.102-0.621,0-0.773c0-0.255,0-0.513,0-0.771c0-0.187,0.073-0.603,0-0.774c-0.04-0.098-0.69,0.081-0.771,0
					c-0.13-0.131,0.125-0.633,0-0.772c-0.122-0.128-0.646,0.126-0.773,0c-0.109-0.108,0.124-0.69,0-0.771
					c-0.15-0.102-0.652,0.13-0.771,0c-0.127-0.131,0.128-0.643,0-0.776c-0.108-0.104-0.691,0.128-0.774,0
					c-0.102-0.149,0.13-0.638,0-0.768c-0.129-0.13-0.643,0.13-0.771,0c-0.11-0.111,0.122-0.69,0-0.774
					c-0.155-0.099-0.647,0.132-0.775,0c-0.126-0.127,0.129-0.643,0-0.772c-0.107-0.106-0.689,0.127-0.771,0
					c-0.104-0.156,0.129-0.644,0-0.769c-0.129-0.133-0.643,0.125-0.772,0c-0.11-0.107,0.121-0.693,0-0.775
					c-0.155-0.101-0.645,0.131-0.772,0c-0.129-0.127,0.127-0.645,0-0.774c-0.108-0.104-0.691,0.127-0.775,0
					c-0.103-0.15,0.13-0.639,0-0.769c-0.128-0.13-0.642,0.13-0.771,0c-0.107-0.107,0.122-0.69,0-0.775
					c-0.146-0.094-0.656,0.13-0.771,0c-0.126-0.136,0.13-0.641,0-0.768c-0.129-0.131-0.646,0.127-0.773,0
					c-0.126-0.131,0.129-0.647,0-0.774c-0.111-0.111-0.685,0.125-0.772,0c-0.077-0.111,0-0.633,0-0.773c0-0.091,0.062-0.72,0-0.769
					c-0.133-0.113-0.665,0.125-0.772,0c-0.121-0.146,0.132-0.645,0-0.775c-0.107-0.106-0.69,0.123-0.772,0
					c-0.105-0.159,0.129-0.644,0-0.774c-0.13-0.128-0.645,0.131-0.773,0c-0.107-0.107,0.125-0.69,0-0.771
					c-0.148-0.099-0.653,0.13-0.772,0c-0.126-0.134,0.131-0.645,0-0.774c-0.108-0.107-0.69,0.125-0.773,0
					c-0.101-0.151,0.129-0.643,0-0.77c-0.128-0.128-0.643,0.127-0.771,0c-0.108-0.113,0.125-0.693,0-0.771
					c-0.155-0.105-0.644,0.127-0.773,0c-0.129-0.131,0.129-0.648,0-0.775c-0.109-0.107-0.69,0.123-0.772,0
					c-0.105-0.153,0.129-0.642,0-0.769c-0.129-0.133-0.644,0.127-0.774,0c-0.106-0.114,0.125-0.694,0-0.774
					c-0.178-0.121-0.579,0.096-0.771,0c0.102-0.157-0.129-0.646,0-0.774c0.099-0.097,0.629,0.042,0.771,0c0.21-0.06,0.554,0,0.774,0
					c0.258,0,0.516,0,0.772,0c0.515,0,1.03,0,1.543,0c0.516,0,1.033,0,1.546,0c0.258,0,0.516,0,0.773,0c1.028,0,2.06,0,3.09,0
					c0.514,0,1.029,0,1.542,0c0.259,0,0.517,0,0.775,0c1.029,0,2.059,0,3.09,0c0.513,0,1.028,0,1.544,0c0.513,0,1.029,0,1.545,0
					c0.256,0,0.514,0,0.771,0c0.516,0,1.031,0,1.544,0c1.031,0,2.06,0,3.089,0c0-0.258,0-0.513,0-0.772c0-0.092-0.059-0.723,0-0.771
					c0.076-0.06,0.748,0.077,0.775,0c0.064-0.192,0-0.567,0-0.77c0-0.259,0-0.517,0-0.774c0-0.26,0-0.515,0-0.772
					c0-0.225-0.056-0.553,0-0.771c0.033-0.141-0.096-0.677,0-0.774c0.126-0.128,0.616,0.103,0.771,0c0-0.516,0-1.031,0-1.545
					c0-0.258,0-0.517,0-0.774c0-0.088-0.06-0.723,0-0.772c0.076-0.056,0.746,0.079,0.772,0c0.069-0.191,0-0.565,0-0.769
					c0-0.26,0-0.518,0-0.775c0-0.259,0-0.51,0-0.768c0-0.095-0.06-0.724,0-0.774c0.155-0.125,0.597,0.102,0.772,0
					c0-0.518,0-1.03,0-1.544c0-0.26,0-0.518,0-0.775c0-0.188-0.07-0.602,0-0.775c0.043-0.092,0.692,0.082,0.775,0
					c0.127-0.122-0.104-0.614,0-0.768c0-0.516,0-1.032,0-1.55c0.104-0.15-0.13-0.642,0-0.766c0.082-0.082,0.729,0.094,0.773,0
					c0.073-0.175,0-0.583,0-0.775c0-0.258,0-0.514,0-0.771c0-0.258,0-0.516,0-0.774c0-0.189-0.075-0.6,0-0.775
					c0.04-0.092,0.689,0.083,0.771,0c0.127-0.124-0.104-0.613,0-0.767c0-0.517,0-1.032,0-1.55c0-0.221-0.057-0.554,0-0.768
					c0.02-0.076,0.71,0.062,0.771,0c0.073-0.076-0.006-0.659,0-0.774c0.014-0.258-0.01-0.516,0-0.772c0-0.258,0-0.516,0-0.771
					c0-0.095-0.059-0.724,0-0.774c0.154-0.128,0.598,0.1,0.772,0c0-0.515,0-1.027,0-1.541c0-0.238-0.049-0.547,0-0.776
					c0.03-0.136-0.091-0.683,0-0.771c0.109-0.106,0.688,0.118,0.771,0c0.12-0.18-0.096-0.576,0-0.771c0-0.516,0-1.03,0-1.547
					c0.106-0.153-0.127-0.645,0-0.771C399.73,674.496,400.22,674.726,400.372,674.625z M398.829,685.438
					c-0.012,0.255,0.014,0.517,0,0.774c-0.006,0.108,0.073,0.698,0,0.767c-0.061,0.064-0.753-0.065-0.772,0
					c-0.057,0.221,0,0.55,0,0.775c0,0.259,0,0.517,0,0.774c0,0.513,0,1.028,0,1.546c-0.154,0.099-0.644-0.134-0.771,0
					c-0.095,0.094,0.035,0.634,0,0.766c-0.054,0.225,0,0.547,0,0.775c0,0.259,0,0.517,0,0.774c0,0.51,0,1.025,0,1.543
					c-0.175,0.103-0.618-0.126-0.771,0c-0.062,0.05,0,0.682,0,0.775c0,0.219,0.057,0.557,0,0.769c-0.062,0.225,0.011,0.543,0,0.775
					c-0.008,0.112,0.073,0.697,0,0.774c-0.129,0.123-0.621-0.107-0.773,0c0,0.509,0,1.025,0,1.543c0,0.258,0,0.516,0,0.769
					c0,0.515,0,1.03,0,1.547c-0.154,0.105-0.646-0.127-0.775,0c-0.097,0.103,0.046,0.629,0,0.771c-0.06,0.206,0,0.558,0,0.773
					c0,0.517,0,1.034,0,1.545c-0.175,0.102-0.617-0.129-0.772,0c-0.06,0.049,0,0.681,0,0.772c0,0.221,0.059,0.56,0,0.774
					c-0.06,0.223,0.013,0.537,0,0.77c-0.004,0.109,0.075,0.7,0,0.771c-0.129,0.131-0.616-0.099-0.772,0c0,0.26,0,0.515,0,0.772
					c0,0.259,0,0.517,0,0.774c0,0.208-0.064,0.573,0,0.774c0.049,0.143-0.102,0.664,0,0.769c0.096,0.098,0.712-0.11,0.772,0
					c0.083,0.15-0.008,0.601,0,0.775c0.009,0.109-0.073,0.7,0,0.771c0.095,0.091,0.716-0.113,0.772,0
					c0.083,0.159-0.008,0.591,0,0.77c0.007,0.112-0.07,0.701,0,0.774c0.089,0.088,0.726-0.102,0.775,0
					c0.079,0.166-0.011,0.583,0,0.771c0.004,0.114-0.074,0.697,0,0.774c0.09,0.086,0.716-0.106,0.773,0
					c0.079,0.158-0.012,0.591,0,0.775c0.004,0.109-0.075,0.695,0,0.769c0.085,0.088,0.721-0.104,0.771,0
					c0.078,0.169-0.011,0.583,0,0.773c0.005,0.112-0.076,0.7,0,0.774c0.089,0.088,0.718-0.111,0.771,0
					c0.081,0.162-0.01,0.586,0,0.768c0.006,0.111-0.073,0.7,0,0.775c0.088,0.086,0.723-0.104,0.772,0c0.08,0.167-0.01,0.583,0,0.769
					c0.007,0.114-0.075,0.7,0,0.774c0.128,0.131,0.619-0.101,0.771,0c0-0.257,0-0.517,0-0.774c0-0.511,0-1.028,0-1.544
					c0-1.025,0-2.059,0-3.084c0-0.518,0-1.034,0-1.55c0-0.256,0-0.514,0-0.771c0-0.516,0-1.032,0-1.544c0-0.258,0-0.517,0-0.771
					c0-0.518,0-1.031,0-1.544c0-1.032,0-2.062,0-3.093c0-0.518,0-1.028,0-1.544c0-0.26,0-0.515,0-0.772c0-1.028,0-2.061,0-3.09
					c0-0.258,0-0.517,0-0.774c0-1.025,0-2.059,0-3.084c0-0.258,0-0.517,0-0.774c0-0.518,0-1.03,0-1.544c0-0.518,0-1.035,0-1.551
					c0-0.258,0-0.51,0-0.768c0-0.516,0-1.032,0-1.55c0-1.025,0-2.055,0-3.086c0-0.516,0-1.033,0-1.542c0-0.258,0-0.517,0-0.774
					c0-0.228,0.055-0.553,0-0.775c-0.034-0.135,0.095-0.672,0-0.768c-0.127-0.131-0.618,0.101-0.771,0
					C398.829,684.407,398.829,684.921,398.829,685.438z M424.315,710.929c0.23,0,0.556,0.051,0.773,0
					c0.138-0.037,0.678,0.092,0.771,0c0.034-0.037,0.031-0.727,0-0.775c-0.067-0.113-0.667,0.092-0.771,0c-0.515,0-1.028,0-1.543,0
					c-1.031,0-2.061,0-3.093,0c-0.516,0-1.029,0-1.544,0c-1.029,0-2.058,0-3.088,0c-0.256,0-0.514,0-0.773,0
					c-0.515,0-1.029,0-1.543,0c-0.519,0-1.029,0-1.545,0c-1.028,0-2.062,0-3.09,0c-0.26,0-0.517,0-0.771,0c-0.261,0-0.517,0-0.774,0
					s-0.515,0-0.775,0c-0.101,0.153,0.133,0.645,0,0.775c-0.125,0.127-0.613-0.105-0.768,0c0,0.255,0,0.514,0,0.771
					c0,0.205,0.066,0.576,0,0.77c-0.03,0.084-0.701-0.072-0.772,0c-0.13,0.13,0.104,0.618,0,0.774c-0.104,0.156,0.129,0.643,0,0.771
					c-0.13,0.131-0.621-0.098-0.772,0c0,0.258,0,0.516,0,0.774c0,0.181,0.072,0.606,0,0.775c-0.039,0.079-0.685-0.063-0.771,0
					c-0.124,0.079,0.108,0.659,0,0.769c-0.102,0.102-0.709-0.117-0.771,0c-0.082,0.144,0.004,0.607,0,0.773
					c-0.01,0.112,0.071,0.7,0,0.774c-0.091,0.082-0.724-0.105-0.775,0c-0.082,0.163,0.007,0.579,0,0.768
					c-0.007,0.111,0.074,0.7,0,0.775c-0.127,0.13-0.615-0.104-0.773,0c0,0.516,0,1.026,0,1.543c0.259,0,0.516,0,0.773,0
					c0.207,0,0.578,0.066,0.775,0c0.074-0.025-0.068-0.697,0-0.774c0.048-0.062,0.677,0,0.771,0c0.256,0,0.517,0,0.771,0
					c0.102-0.15-0.133-0.639,0-0.769c0.127-0.13,0.617,0.102,0.772,0c0.153-0.104,0.642,0.13,0.772,0
					c0.129-0.13-0.105-0.617,0-0.775c0.518,0,1.028,0,1.543,0c0.156-0.1,0.644,0.133,0.774,0c0.082-0.08-0.098-0.729,0-0.768
					c0.169-0.074,0.583,0,0.771,0c0.169,0,0.629,0.071,0.772,0c0.11-0.064-0.095-0.681,0-0.774c0.126-0.131,0.615,0.097,0.771,0
					c0.185-0.118,0.595,0.117,0.773,0c0.122-0.082-0.107-0.665,0-0.773c0.115-0.114,0.62,0.072,0.772,0c0.166-0.073,0.587,0,0.769,0
					c0.19,0,0.603,0.072,0.776,0c0.097-0.041-0.085-0.689,0-0.769c0.116-0.119,0.618,0.065,0.771,0c0.152-0.075,0.654,0.109,0.771,0
					c0.094-0.101-0.112-0.715,0-0.775c0.152-0.081,0.6,0.008,0.773,0c0.111-0.005,0.698,0.072,0.773,0
					c0.126-0.129-0.104-0.621,0-0.774c0.257,0,0.515,0,0.773,0c0.255,0,0.512,0,0.77,0c0.222,0,0.561,0.06,0.771,0
					c0.067-0.016-0.051-0.706,0-0.771c0.05-0.063,0.684,0,0.772,0c0.189,0,0.604,0.074,0.771,0c0.094-0.04-0.067-0.688,0-0.774
					c0.052-0.06,0.682,0,0.774,0c0.163,0,0.633,0.08,0.774,0c0.109-0.061-0.1-0.672,0-0.77c0.127-0.128,0.616,0.104,0.772,0
					c0.156-0.102,0.641,0.127,0.771,0c0.124-0.128-0.104-0.618,0-0.771C423.803,710.929,424.061,710.929,424.315,710.929z
					 M374.112,710.929c-0.024,0.02-0.021,0.755,0,0.771c0.156,0.124,0.596-0.1,0.773,0c0.1,0.153-0.13,0.642,0,0.77
					c0.121,0.125,0.662-0.131,0.772,0c0.129,0.154-0.113,0.606,0,0.774c0.082,0.126,0.665-0.107,0.772,0
					c0.129,0.131-0.129,0.643,0,0.771c0.129,0.131,0.646-0.128,0.772,0c0.123,0.122-0.132,0.665,0,0.774
					c0.153,0.128,0.604-0.112,0.773,0c0.123,0.082-0.111,0.662,0,0.775c0.128,0.125,0.643-0.133,0.771,0
					c0.129,0.125-0.128,0.639,0,0.769c0.121,0.121,0.664-0.13,0.771,0c0.13,0.151-0.108,0.607,0,0.773
					c0.083,0.122,0.667-0.111,0.775,0c0.127,0.127-0.129,0.644,0,0.774c0.127,0.127,0.643-0.131,0.772,0
					c0.121,0.12-0.13,0.659,0,0.768c0.15,0.133,0.604-0.11,0.772,0c0.123,0.085-0.107,0.668,0,0.775c0.129,0.13,0.617-0.104,0.771,0
					c0.104,0.156-0.127,0.641,0,0.769c0.129,0.13,0.646-0.128,0.775,0c0.127,0.13-0.129,0.647,0,0.774
					c0.127,0.131,0.642-0.127,0.771,0c0.13,0.131-0.129,0.643,0,0.775c0.13,0.125,0.644-0.133,0.774,0
					c0.128,0.125-0.13,0.64,0,0.769c0.127,0.13,0.646-0.129,0.771,0c0.129,0.131-0.128,0.646,0,0.772
					c0.129,0.132,0.645-0.127,0.773,0c0.127,0.132-0.129,0.645,0,0.774c0.125,0.13,0.647-0.13,0.771,0
					c0.126,0.134-0.13,0.644,0,0.768c0.124,0.128,0.664-0.127,0.773,0c0.129,0.159-0.111,0.607,0,0.776
					c0.08,0.124,0.665-0.108,0.771,0c0.13,0.133-0.102,0.618,0,0.771c0.517,0,1.031,0,1.547,0c0.155-0.1,0.643,0.127,0.772,0
					c0.082-0.081-0.098-0.729,0-0.771c0.169-0.072,0.584,0,0.771,0c0.167,0,0.631,0.078,0.775,0c0.11-0.057-0.096-0.675,0-0.776
					c0.126-0.124,0.616,0.108,0.771,0c0.156-0.1,0.643,0.134,0.772,0c0.129-0.124-0.103-0.615,0-0.768c0.259,0,0.517,0,0.772,0
					c0.228,0,0.554,0.055,0.775,0c0.135-0.035,0.679,0.094,0.773,0c0.078-0.077-0.095-0.735,0-0.774c0.172-0.072,0.581,0,0.771,0
					c0.183,0,0.608,0.077,0.771,0c0.085-0.037-0.058-0.679,0-0.772c0.083-0.121,0.664,0.107,0.772,0
					c0.128-0.129-0.103-0.615,0-0.769c-0.257-0.016-0.516,0.01-0.772,0c-0.113-0.007-0.697,0.071-0.771,0
					c-0.088-0.09,0.103-0.723,0-0.775c-0.169-0.081-0.584,0.008-0.771,0c-0.115-0.005-0.701,0.075-0.773,0
					c-0.13-0.127,0.104-0.615,0-0.774c-0.259-0.01-0.517,0.016-0.775,0c-0.11-0.006-0.697,0.077-0.772,0
					c-0.129-0.128,0.103-0.612,0-0.769c-0.513,0-1.028,0-1.542,0c-0.104-0.156,0.126-0.643,0-0.775
					c-0.129-0.126-0.619,0.107-0.775,0c-0.153-0.1-0.642,0.133-0.771,0c-0.129-0.126,0.102-0.618,0-0.768c-0.516,0-1.03,0-1.545,0
					c-0.104-0.156,0.129-0.647,0-0.774c-0.109-0.111-0.622,0.058-0.773,0c-0.188-0.076-0.566,0.007-0.771,0
					c-0.113-0.006-0.7,0.07-0.773,0c-0.127-0.131,0.105-0.622,0-0.773c-0.256,0-0.514,0-0.771,0c-0.206,0-0.58,0.065-0.773,0
					c-0.079-0.028,0.062-0.7,0-0.769c-0.051-0.066-0.68,0-0.771,0c-0.183,0-0.612,0.073-0.774,0c-0.095-0.047,0.072-0.689,0-0.775
					c-0.049-0.062-0.679,0-0.771,0c-0.179,0-0.616,0.076-0.775,0c-0.094-0.045,0.076-0.683,0-0.774c-0.05-0.062-0.679,0-0.771,0
					c-0.181,0-0.612,0.076-0.772,0c-0.096-0.041,0.071-0.683,0-0.771c-0.052-0.063-0.682,0-0.772,0c-0.179,0-0.616,0.074-0.775,0
					c-0.094-0.046,0.075-0.681,0-0.774c-0.048-0.06-0.679,0-0.771,0c-0.186,0-0.603,0.074-0.771,0c-0.197-0.082-0.599,0.119-0.773,0
					c-0.124-0.082,0.108-0.662,0-0.77c-0.124-0.124-0.616,0.085-0.772,0c-0.189-0.107-0.592,0.117-0.772,0
					c-0.125-0.087,0.107-0.665,0-0.771c-0.129-0.131-0.619,0.102-0.772,0C374.731,711.03,374.241,710.798,374.112,710.929z
					 M401.145,723.283c0,0.259,0,0.517,0,0.774c0,0.188-0.071,0.603,0,0.768c0.044,0.103,0.691-0.076,0.773,0
					c0.131,0.134-0.1,0.623,0,0.776c0.099,0.155-0.125,0.646,0,0.771c0.131,0.127,0.615-0.1,0.775,0c0,0.258,0,0.515,0,0.772
					c0,0.188-0.078,0.604,0,0.774c0.04,0.092,0.689-0.082,0.771,0c0.123,0.126-0.092,0.614,0,0.771c0.087,0.154-0.124,0.648,0,0.773
					c0.125,0.128,0.639-0.131,0.771,0c0.127,0.128-0.133,0.644,0,0.772c0.127,0.131,0.617-0.106,0.772,0c0,0.514,0,1.025,0,1.541
					c0.153,0.107,0.642-0.124,0.772,0c0.071,0.077-0.004,0.66,0,0.772c0.012,0.26-0.011,0.518,0,0.775
					c0.154,0.103,0.643-0.131,0.768,0c0.078,0.074,0,0.656,0,0.771c0.016,0.259-0.01,0.517,0,0.773c0.158,0.099,0.65-0.134,0.775,0
					c0.132,0.124-0.101,0.615,0,0.774c0.104,0.151-0.125,0.643,0,0.77c0.132,0.131,0.618-0.102,0.774,0c0,0.514,0,1.029,0,1.544
					c0.156,0.105,0.642-0.127,0.771,0c0.127,0.131-0.104,0.619,0,0.771c0.101,0.159-0.13,0.644,0,0.773
					c0.113,0.115,0.678-0.125,0.772,0c0.11,0.15-0.133,0.643,0,0.775c0.107,0.104,0.688-0.129,0.771,0
					c0.121,0.18-0.111,0.583,0,0.77c0.088,0.16-0.124,0.648,0,0.774c0.107,0.107,0.69-0.126,0.773,0
					c0.122,0.177-0.105,0.578,0,0.772c0.086,0.156-0.122,0.649,0,0.769c0.108,0.113,0.69-0.119,0.772,0
					c0.118,0.18-0.104,0.583,0,0.773c0.084,0.155-0.123,0.652,0,0.775c0.081,0.078,0.73-0.098,0.769,0c0.075,0.166,0,0.583,0,0.769
					c0,0.19-0.067,0.604,0,0.775c0.044,0.098,0.691-0.082,0.776,0c0.07,0.074-0.009,0.658,0,0.775c0.01,0.166-0.085,0.625,0,0.769
					c0.064,0.116,0.674-0.1,0.771,0c0.077,0.074-0.007,0.66,0,0.775c0.006,0.137-0.082,0.66,0,0.768c0.098,0.13,0.654-0.117,0.771,0
					c0.107,0.111-0.127,0.69,0,0.774c0.178,0.114,0.579-0.097,0.773,0c0-0.517,0-1.031,0-1.542c-0.103-0.159,0.127-0.647,0-0.775
					c-0.083-0.081-0.731,0.095-0.773,0c-0.071-0.169,0-0.583,0-0.769c0-0.233,0.052-0.548,0-0.775c-0.05-0.228,0-0.543,0-0.775
					c0-0.224,0.057-0.552,0-0.769c-0.036-0.139,0.094-0.68,0-0.775c-0.127-0.128-0.616,0.104-0.771,0c0-1.031,0-2.057,0-3.089
					c-0.103-0.156,0.127-0.642,0-0.77c-0.082-0.083-0.73,0.097-0.771,0c-0.075-0.172,0-0.588,0-0.775c0-0.259,0-0.517,0-0.773
					c0-0.258,0-0.516,0-0.771c0-0.092,0.061-0.721,0-0.772c-0.075-0.059-0.742,0.079-0.776,0c-0.063-0.191,0-0.57,0-0.771
					c0-0.258,0-0.515,0-0.77c0-0.259,0-0.517,0-0.774c0-0.226,0.057-0.554,0-0.773c-0.029-0.138,0.099-0.678,0-0.771
					c-0.124-0.131-0.615,0.103-0.769,0c0-0.516,0-1.03,0-1.548c0-0.258,0-0.516,0-0.77c0-0.188,0.071-0.602,0-0.771
					c-0.041-0.098-0.69,0.081-0.772,0c-0.087-0.088,0.021-0.645,0-0.772c-0.041-0.239,0-0.532,0-0.773c0-0.255,0-0.513,0-0.771
					c0-0.223,0.057-0.564,0-0.774c-0.021-0.069-0.706,0.058-0.773,0c-0.106-0.154,0.13-0.646,0-0.772
					c-0.073-0.071-0.659,0.007-0.771,0c-0.255-0.013-0.516,0.013-0.772,0c-0.104-0.153,0.127-0.639,0-0.771
					c-0.075-0.072-0.66,0.005-0.771,0c-0.205-0.01-0.586,0.076-0.774,0c-0.151-0.057-0.661,0.111-0.775,0
					c-0.105-0.108,0.127-0.691,0-0.776c-0.173-0.114-0.577,0.102-0.768,0c-0.154-0.1-0.644,0.134-0.772,0
					c-0.111-0.104,0.12-0.686,0-0.768c-0.181-0.12-0.594,0.117-0.772,0c-0.155-0.099-0.646,0.13-0.771,0
					c-0.133-0.13,0.1-0.62,0-0.774c-0.517,0-1.032,0-1.547,0C401.66,723.283,401.403,723.283,401.145,723.283
					c0-0.255,0-0.513,0-0.772c-0.153,0.104-0.641-0.129-0.772,0c-0.022,0.023-0.02,0.758,0,0.772
					C400.528,723.409,400.969,723.185,401.145,723.283z M384.153,753.409c-0.258,0-0.513,0-0.771,0c0.102,0.15-0.129,0.64,0,0.77
					c0.021,0.024,0.753,0.024,0.771,0C384.279,754.024,384.053,753.582,384.153,753.409c0.21-0.089,0.577,0.108,0.774,0
					c0.113-0.063-0.097-0.675,0-0.774c0.107-0.107,0.69,0.126,0.771,0c0.119-0.177-0.094-0.578,0-0.775
					c0.153-0.099,0.645,0.131,0.773,0c0.127-0.124-0.104-0.612,0-0.769c0.153-0.104,0.643,0.131,0.771,0
					c0.129-0.127-0.102-0.619,0-0.772c0.156-0.103,0.645,0.13,0.773,0c0.108-0.109-0.125-0.692,0-0.774
					c0.153-0.103,0.642,0.13,0.771,0c0.13-0.13-0.129-0.643,0-0.768c0.11-0.111,0.69,0.117,0.773,0c0.119-0.182-0.096-0.577,0-0.775
					c0.153-0.102,0.645,0.128,0.773,0c0.107-0.11-0.125-0.69,0-0.769c0.167-0.117,0.619,0.121,0.772,0
					c0.13-0.114-0.122-0.652,0-0.775c0.129-0.13,0.617,0.102,0.771,0c0.103-0.153-0.129-0.645,0-0.775
					c0.11-0.107,0.692,0.128,0.775,0c0.119-0.176-0.098-0.579,0-0.769c0.152-0.104,0.643,0.131,0.771,0
					c0.129-0.129-0.127-0.645,0-0.775c0.129-0.128,0.643,0.131,0.772,0c0.129-0.128-0.129-0.644,0-0.773
					c0.129-0.128,0.646,0.13,0.772,0c0.129-0.128-0.126-0.642,0-0.769c0.129-0.131,0.645,0.127,0.775,0
					c0.127-0.131-0.13-0.647,0-0.772c0.127-0.133,0.644,0.125,0.773,0c0.128-0.133-0.129-0.647,0-0.774
					c0.126-0.127,0.642,0.127,0.771,0c0.127-0.127-0.129-0.642,0-0.77c0.127-0.132,0.644,0.128,0.771,0
					c0.128-0.132-0.127-0.647,0-0.775c0.128-0.13,0.643,0.128,0.772,0c0.128-0.13-0.103-0.614,0-0.773
					c0.153-0.099,0.644,0.134,0.771,0c0.072-0.07-0.005-0.661,0-0.771c0.013-0.252-0.029-0.519,0-0.772c0.029-0.248,0-0.523,0-0.771
					c0-0.258,0-0.515,0-0.77c0-0.259,0-0.517,0-0.774c0-0.515,0-1.031,0-1.545c0-1.03,0-2.063,0-3.089c0-0.518,0-1.028,0-1.546
					c0-0.513,0-1.029,0-1.546c0-0.258,0-0.515,0-0.772c0-0.255,0-0.514,0-0.771c0-0.229,0.055-0.554,0-0.776
					c-0.034-0.132,0.095-0.674,0-0.768c-0.127-0.13-0.618,0.104-0.771,0c0,0.516,0,1.026,0,1.544c-0.154,0.104-0.644-0.127-0.772,0
					c-0.109,0.109,0.124,0.69,0,0.771c-0.089,0.061-0.735-0.081-0.771,0c-0.076,0.163,0,0.592,0,0.772c0,0.159,0.076,0.644,0,0.774
					c-0.069,0.115-0.673-0.099-0.771,0c-0.129,0.126,0.101,0.614,0,0.771c-0.105,0.152,0.128,0.643,0,0.773
					c-0.129,0.128-0.621-0.105-0.773,0c0,0.255,0,0.513,0,0.772c0,0.188,0.072,0.6,0,0.771c-0.041,0.099-0.692-0.081-0.775,0
					c-0.11,0.108,0.066,0.62,0,0.77c-0.064,0.156,0.113,0.66,0,0.772c-0.08,0.085-0.73-0.093-0.772,0c-0.073,0.172,0,0.585,0,0.775
					c0,0.174,0.076,0.621,0,0.771c-0.051,0.107-0.68-0.092-0.772,0c-0.127,0.131,0.104,0.617,0,0.773
					c-0.102,0.153,0.129,0.641,0,0.774c-0.097,0.095-0.709-0.115-0.771,0c-0.079,0.136,0,0.608,0,0.77c0,0.089,0.06,0.721,0,0.771
					c-0.155,0.127-0.599-0.102-0.775,0c0,0.515,0,1.028,0,1.544c-0.153,0.104-0.642-0.124-0.771,0c-0.107,0.111,0.125,0.691,0,0.773
					c-0.089,0.06-0.735-0.084-0.772,0c-0.075,0.163,0,0.59,0,0.775c0,0.258,0,0.514,0,0.77c-0.155,0.102-0.645-0.127-0.773,0
					c-0.073,0.074,0.007,0.661,0,0.774c-0.009,0.174,0.082,0.622,0,0.772c-0.061,0.109-0.676-0.098-0.773,0
					c-0.121,0.12,0.084,0.615,0,0.769c-0.082,0.156,0.121,0.653,0,0.773c-0.106,0.108-0.691-0.12-0.771,0
					c-0.119,0.181,0.116,0.591,0,0.775c-0.1,0.154,0.127,0.644,0,0.769c-0.129,0.131-0.617-0.1-0.773,0c0,0.258,0,0.518,0,0.775
					c0,0.088,0.062,0.724,0,0.775c-0.074,0.058-0.743-0.082-0.771,0c-0.069,0.188,0,0.562,0,0.769c0,0.172,0.073,0.625,0,0.775
					c-0.057,0.107-0.683-0.095-0.773,0c-0.128,0.125,0.103,0.614,0,0.768c-0.103,0.156,0.129,0.646,0,0.774
					c-0.128,0.13-0.617-0.103-0.771,0c0,0.515,0,1.027,0,1.541c-0.155,0.104-0.644-0.124-0.774,0c-0.071,0.078,0.007,0.664,0,0.775
					C384.14,752.893,384.165,753.151,384.153,753.409z"/>
			</g>
		</g>
	</g>
	<g>
		<path fill="#CC0000" d="M315.208,670.196c3.794-3.192,7.669-4.237,11.618-3.148c4.577,1.269,7.737,4.419,9.474,9.469
			c2.946,7.98,2.359,19.398-1.745,34.246c-3.767,13.628-9.4,23.48-16.903,29.562c-4.875,3.866-9.602,5.171-14.18,3.904
			c-1.455-0.401-2.785-1.259-3.992-2.569c-0.87-0.898-2.034-1.539-3.491-1.943c-1.451-0.403-2.809,0.032-4.061,1.322l2.719-20.77
			l2.435-0.305c-0.216,6.459,0.46,11.699,2.034,15.725c1.001,2.881,2.949,4.728,5.858,5.531c2.709,0.751,5.478,0.047,8.309-2.103
			c6.336-5.097,11.512-14.917,15.532-29.456c4.356-15.755,5.25-27.085,2.68-33.986c-0.868-2.523-2.867-4.214-5.988-5.076
			c-3.323-0.921-6.698-0.067-10.116,2.58c-2.541,1.904-5.645,6.265-9.325,13.075l-1.495-1.881
			C307.579,678.357,311.127,673.629,315.208,670.196z"/>
		<path fill="#CC0000" d="M245.074,723.796c-13.6-6.716-10.384-29.489-1.027-48.425c9.516-19.258,25.573-35.286,39.097-28.609
			c12.931,6.385,11.083,28.084,1.031,48.425C274.814,714.119,258.675,730.511,245.074,723.796z M281.27,650.548
			c-9.289-4.587-18.425,7.727-28.903,28.932c-12.03,24.345-13.67,36.455-5.42,40.528c8.693,4.294,17.675-6.21,28.905-28.933
			C287.88,666.732,289.522,654.622,281.27,650.548z"/>
		<path fill="#CC0000" d="M198.434,695.263l11.997-64.836l-0.134-0.097l-27.485,37.462c-5.424,7.396-5.359,9.688-0.474,13.12
			l-1.216,1.651l-13.164-9.654l1.213-1.655c3.476,2.55,6.034,1.583,9.746-3.475l43.191-58.873l0.935,0.685l-13.546,72.836
			l0.135,0.097l30.982-42.233c5.781-7.883,5.301-10.029,0.079-13.559l1.215-1.654l14.1,10.345l-1.213,1.651
			c-4.215-2.94-6.573-1.826-10.572,3.621l-35.977,49.043l-0.843,5.07c-0.581,3.314,0.132,4.585,2.138,6.056l-1.216,1.654
			L198.434,695.263z"/>
		<path fill="#CC0000" d="M136.575,641.983l1.519-1.383c2.508,2.763,4.081,3.238,6.405,1.129c0.624-0.57,0.925-0.957,2.075-2.56
			l30.316-43.64l-0.114-0.124l-45.145,26.771c-1.062,0.627-2.155,1.396-2.959,2.129c-1.699,1.541-2.113,3.598,0.393,6.356
			l-1.52,1.378l-9.471-10.428l1.519-1.381c3.154,2.398,5.511,1.938,12.611-2.271l62.646-36.945l0.946,1.044l-42.675,61.804
			c-3.948,5.71-4.472,7.643-2.38,10.665l-1.519,1.381L136.575,641.983z"/>
		<path fill="#CC0000" d="M99.575,560.991l0.778,1.271c-9.72,7.011-9.51,9.896-6.136,15.408l5.967,9.759l27.488-16.813l-4.67-7.636
			c-3.287-5.372-6.769-5.283-14.651-0.363l-0.737-1.201l24.501-14.987l0.737,1.201c-7.765,4.652-9.225,7.586-6.715,11.687
			l5.448,8.906l25.122-15.365c4.941-3.023,5.565-4.084,3.791-6.98l-4.235-6.931c-3.59-5.866-9.213-6.505-20.938-2.542l-0.219-1.516
			l19.751-7.03l19.459,31.812l-1.751,1.071c-2.967-5.081-4.999-5.394-13.13-0.42l-48.079,29.41
			c-7.412,4.53-8.995,6.568-5.503,11.817l-1.751,1.067l-19.331-31.598L99.575,560.991z"/>
		<path fill="#CC0000" d="M68.215,536.795l45.358-47.865l-0.062-0.155l-43.445,16.481c-8.574,3.249-9.767,5.211-7.54,10.744
			l-1.921,0.729l-5.786-15.261l1.92-0.729c1.525,4.029,4.2,4.61,10.066,2.386l68.273-25.896l0.412,1.083l-51.008,53.729l0.059,0.152
			l48.977-18.575c9.139-3.467,9.906-5.528,7.449-11.33l1.917-0.729l6.199,16.349l-1.917,0.727c-1.938-4.763-4.521-5.11-10.839-2.711
			l-56.876,21.572l-3.464,3.795c-2.294,2.462-2.385,3.919-1.508,6.241l-1.915,0.729L68.215,536.795z"/>
		<path fill="#CC0000" d="M51.256,465.014c1.201,6.439,3.868,8.894,17.229,6.825l0.26,1.385l-19.976,3.468l-6.029-32.35
			l81.476,12.982l-2.399-12.876c-1.822-9.778-6.946-10.932-19.471-10.284l-0.258-1.386l21.93-1.556l6.452,34.633l-2.017,0.375
			l-79.321-12.624L51.256,465.014z"/>
		<path fill="#CC0000" d="M39.979,403.325l2.05-0.097c0.143,5.551,1.897,6.879,11.178,6.433l56.292-2.694
			c10.005-0.479,10.885-2.264,10.638-7.48l2.048-0.097l1.034,21.692l-2.048,0.097c-0.152-5.717-2.383-6.858-11.303-6.429
			l-56.289,2.696c-9.281,0.441-10.78,1.928-10.519,7.472l-2.048,0.099L39.979,403.325z"/>
		<path fill="#CC0000" d="M39.93,362.894c1.468-15.091,23.909-20.153,44.933-18.107c21.384,2.08,42.063,11.416,40.603,26.425
			c-1.396,14.35-22.347,20.304-44.93,18.109C59.51,387.277,38.465,377.988,39.93,362.894z M121.261,370.804
			c1.001-10.311-13.75-14.492-37.294-16.78c-27.033-2.629-38.941,0.125-39.831,9.282c-0.938,9.648,12.065,14.325,37.294,16.78
			C108.46,382.712,120.372,379.958,121.261,370.804z"/>
		<path fill="#CC0000" d="M51.485,307.258l65.158-10.095l0.049-0.159l-44.44-13.561c-8.772-2.68-10.914-1.859-12.538,3.885
			l-1.964-0.601l4.764-15.617l1.964,0.599c-1.258,4.122,0.5,6.22,6.5,8.05l69.833,21.313l-0.337,1.111l-73.218,11.274l-0.044,0.16
			l50.091,15.288c9.35,2.853,11.217,1.692,12.826-4.404l1.962,0.6l-5.103,16.725l-1.962-0.599c1.383-4.95-0.446-6.808-6.911-8.781
			l-58.172-17.754l-5.065,0.881c-3.322,0.546-4.284,1.638-5.01,4.016l-1.963-0.599L51.485,307.258z"/>
		<path fill="#CC0000" d="M105.999,223.421l-0.706,1.314c-10.956-4.852-13.343-3.22-16.4,2.475l-5.412,10.073l28.388,15.253
			l4.235-7.881c2.979-5.549,1.143-8.51-7.082-12.836l0.666-1.241l25.306,13.599l-0.667,1.24c-7.936-4.357-11.203-4.14-13.478,0.095
			l-4.939,9.197l25.941,13.939c5.105,2.743,6.337,2.748,7.941-0.247l3.844-7.153c3.253-6.059,0.967-11.238-8.371-19.36l1.198-0.954
			l16.036,13.509l-17.643,32.841l-1.807-0.969c2.89-5.124,2.135-7.034-6.264-11.549l-49.653-26.681
			c-7.654-4.113-10.213-4.453-12.98,1.208l-1.81-0.974l17.526-32.625L105.999,223.421z"/>
		<path fill="#CC0000" d="M137.048,153.9c13.59-14.064,33.9-6.076,49.259,8.767c18.313,17.697,20.7,37.287,10.221,48.132
			l-15.314,15.851l-1.473-1.425c4.142-4.29,3.879-6.274-2.892-12.818l-40.53-39.165c-6.77-6.542-8.819-6.678-12.82-2.362
			l-1.475-1.425L137.048,153.9z M187.466,211.838c2.282-0.447,4.53-1.732,6.427-3.699c8.003-8.283,2.89-22.444-13.774-38.547
			c-16.923-16.353-31.973-21.101-40.148-12.637c-1.611,1.667-2.446,3.05-3.362,5.737L187.466,211.838z"/>
		<path fill="#CC0000" d="M188.165,109.207l1.239,1.633c-4.487,3.27-4.585,5.467,1.047,12.86l34.145,44.832
			c6.072,7.969,8.041,7.682,12.195,4.517l1.24,1.63l-17.27,13.165l-1.244-1.631c4.622-3.37,4.295-5.854-1.116-12.958l-34.146-44.831
			c-5.631-7.393-7.702-7.787-12.12-4.421l-1.242-1.633L188.165,109.207z"/>
		<path fill="#CC0000" d="M277.539,88.127l-1.286,0.572c-6.435-12.465-16.078-16.638-22.667-13.716
			c-9.245,4.098-8.942,20.731,0.596,42.25c7.627,17.212,19.66,33.529,30.268,28.827c3.558-1.58,5.959-4.756,7.252-9.819
			l-9.879-22.288c-2.688-6.068-4.874-8.137-9.089-6.398l-0.83-1.874l17.573-7.794l0.831,1.874
			c-4.243,1.881-4.002,5.077-0.776,12.359l9.731,21.958c-2.731,7.945-6.815,13.056-12.647,15.643
			c-13.786,6.114-30.454-5.111-40.283-27.29c-8.751-19.749-9.685-44.554,4.556-50.87c7.122-3.157,12.761,0.151,14.275-0.52
			c1.286-0.571,1.131-2.351-0.256-5.695l1.21-0.538L277.539,88.127z"/>
		<path fill="#CC0000" d="M311.487,52.682l0.549,1.976c-5.384,1.368-6.292,3.373-3.81,12.325l15.058,54.306
			c2.677,9.65,4.609,10.115,9.645,8.722l0.547,1.977l-20.927,5.799l-0.547-1.978c5.543-1.412,6.16-3.836,3.774-12.44l-15.057-54.305
			c-2.479-8.955-4.26-10.09-9.609-8.605l-0.549-1.978L311.487,52.682z"/>
		<path fill="#CC0000" d="M343.764,46.211l35.104,55.806l0.164-0.019l-5.174-46.172c-1.021-9.113-2.624-10.756-8.54-9.97l-0.23-2.04
			l16.223-1.822l0.228,2.04c-4.281,0.481-5.507,2.925-4.807,9.162l8.133,72.558l-1.151,0.13l-39.386-62.735l-0.162,0.019
			l5.834,52.05c1.088,9.713,2.895,10.968,9.126,10.025l0.229,2.04l-17.374,1.949l-0.229-2.038c5.092-0.693,6.073-3.11,5.319-9.827
			l-6.776-60.443l-2.816-4.3c-1.82-2.832-3.204-3.284-5.675-3.006l-0.227-2.038L343.764,46.211z"/>
		<path fill="#CC0000" d="M442.18,62.833l-1.483-0.122c0.069-11.983-2.383-13.516-8.824-14.047l-11.402-0.938l-2.638,32.111
			l8.921,0.735c6.275,0.516,8.259-2.346,8.939-11.615l1.401,0.114l-2.35,28.627l-1.407-0.116c0.824-9.015-0.686-11.923-5.475-12.317
			l-10.408-0.856l-2.413,29.345c-0.479,5.774,0.016,6.904,3.403,7.183l8.094,0.665c6.855,0.567,10.69-3.6,14.406-15.402l1.354,0.716
			l-5.974,20.094l-37.175-3.061l0.168-2.044c5.856,0.603,7.303-0.853,8.088-10.354l4.617-56.168c0.714-8.66,0-11.141-6.294-11.417
			l0.166-2.046l36.925,3.041L442.18,62.833z"/>
		<path fill="#CC0000" d="M486.051,53.45l-0.528,1.982c-3.602-0.957-5.181-0.501-5.988,2.531c-0.215,0.815-0.26,1.304-0.352,3.276
			l-1.761,53.101l0.159,0.042l23.369-46.987c0.551-1.105,1.052-2.346,1.33-3.395c0.591-2.215-0.177-4.167-3.782-5.124l0.527-1.983
			l13.614,3.614l-0.526,1.983c-3.949-0.299-5.677,1.363-9.355,8.753l-32.536,65.035l-1.361-0.359l2.279-75.065
			c0.212-6.934-0.395-8.845-3.793-10.246l0.526-1.983L486.051,53.45z"/>
		<path fill="#CC0000" d="M518.633,137.828c-4.163,8.442-3.872,10.469,1.68,13.078l-0.906,1.839l-20.141-9.943l0.907-1.84
			c5.596,2.896,7.362,1.751,11.477-6.582l24.899-50.425c4.219-8.548,3.652-10.58-1.75-13.113l0.903-1.84l20.81,10.276
			c9.658,4.771,10.886,16.142,6.021,25.989c-4.541,9.197-12.813,14.534-21.612,12.882l-2.065,34.511
			c-0.347,5.751,0.15,7.746,2.785,8.777l-0.908,1.839l-9.736-4.807l2.599-42.326l-3.419-1.688L518.633,137.828z M534.636,112.352
			c6.982,3.449,14.498-0.916,19.04-10.113c4.649-9.414,4.015-17.67-1.488-20.386c-1.707-0.844-3.611-1.11-5.503-0.832l-14.8,29.973
			L534.636,112.352z"/>
		<path fill="#CC0000" d="M562.354,165.299c-1.141,1.106-2,1.971-2.509,2.646c-1.882,2.511-1.835,4.66,1.553,7.048l-1.232,1.641
			l-12.258-9.199l1.229-1.641c3.245,2.436,5.818,1.498,12.706-4.648l54.05-47.871l1.059,0.795l-29.989,65.921
			c-4.669,10.229-4.025,11.165-0.845,13.552l-1.231,1.642l-15.443-11.588l1.234-1.642c2.784,2.089,4.644,1.823,6.668-0.879
			c0.798-1.062,1.243-1.935,2.599-4.843l5.958-13.185l-11.399-8.553L562.354,165.299z M600.357,131.497l-0.134-0.101l-22.244,19.979
			l9.877,7.408L600.357,131.497z"/>
		<path fill="#CC0000" d="M629.945,247.537l-17.469-23.364l1.646-1.23l18.762-1.91c15.545-1.578,29.062-5.469,38.925-12.835
			c8.313-6.211,11.345-13.443,7.77-18.221c-2.876-3.85-8.534-3.762-15.658,0.214l-0.891-1.193
			c11.425-7.088,21.664-7.906,26.078-1.999c4.615,6.172,0.844,16.441-8.636,23.518c-9.187,6.861-24.592,11.852-56.914,13.759
			l10.668,14.271c1.688,2.258,4.281,2.906,9.049,1.827l0.945,1.261L629.945,247.537z"/>
		<path fill="#CC0000" d="M650.061,282.354l-13.917-25.635l1.801-0.98l18.841,0.801c15.609,0.669,29.543-1.238,40.36-7.114
			c9.122-4.956,13.165-11.676,10.316-16.918c-2.29-4.224-7.903-4.948-15.523-2.036l-0.714-1.311
			c12.327-5.374,22.574-4.716,26.096,1.767c3.674,6.774-1.536,16.394-11.935,22.039c-10.077,5.474-26.036,8.201-58.295,5.446
			l8.5,15.658c1.343,2.476,3.815,3.489,8.689,3.106l0.752,1.384L650.061,282.354z"/>
		<path fill="#CC0000" d="M675.865,319.736c-1.582,0.15-2.792,0.289-3.609,0.5c-3.039,0.783-4.345,2.488-3.196,6.47l-1.989,0.511
			l-3.815-14.85l1.989-0.511c1.01,3.935,3.601,4.808,12.82,4.319l72.103-3.567l0.332,1.285l-64.616,32.702
			c-10.037,5.064-10.124,6.195-9.132,10.05l-1.987,0.511l-4.808-18.703l1.986-0.51c0.868,3.372,2.487,4.326,5.757,3.481
			c1.283-0.33,2.18-0.731,5.054-2.152l12.892-6.567l-3.546-13.806L675.865,319.736z M726.653,317.115l-0.038-0.159l-29.85,1.685
			l3.07,11.958L726.653,317.115z"/>
		<path fill="#CC0000" d="M736.307,398.54l-0.095-1.403c13.911-1.78,21.135-9.415,20.641-16.608
			c-0.682-10.086-16.419-15.488-39.901-13.888c-18.782,1.283-38.232,7.012-37.441,18.585c0.267,3.886,2.43,7.227,6.744,10.17
			l24.325-1.658c6.622-0.453,9.308-1.8,9.119-6.354l2.048-0.14l1.31,19.177l-2.046,0.141c-0.317-4.63-3.401-5.499-11.347-4.956
			l-23.963,1.637c-6.53-5.287-9.936-10.867-10.374-17.234c-1.025-15.044,15.229-26.869,39.433-28.519
			c21.551-1.472,45.176,6.135,46.239,21.677c0.53,7.771-4.51,11.934-4.397,13.586c0.095,1.407,1.821,1.872,5.438,1.706l0.089,1.322
			L736.307,398.54z"/>
		<path fill="#CC0000" d="M758.411,452.023c-2.087,15.025-24.718,19.15-45.639,16.235c-21.276-2.967-41.55-13.157-39.472-28.098
			c1.987-14.285,23.165-19.365,45.64-16.233C739.861,426.844,760.505,436.999,758.411,452.023z M677.485,440.744
			c-1.427,10.262,13.138,15.054,36.57,18.318c26.894,3.75,38.905,1.491,40.172-7.622c1.339-9.605-11.465-14.821-36.564-18.319
			C690.767,429.373,678.75,431.632,677.485,440.744z"/>
		<path fill="#CC0000" d="M693.979,479.671l-0.489,1.498c-15.211-4.326-24.366,0.026-26.333,6.097
			c-1.561,4.811,2.712,10.026,10.055,12.41c4.709,1.526,8.598,1.654,13.65,0.155c5.193-1.539,14.55-7.303,21.146-9.259
			c5.614-1.665,11.253-1.842,17.795,0.278c11.596,3.762,17.891,11.727,15.382,19.454c-1.917,5.913-6.814,7.721-7.354,9.378
			c-0.434,1.34,0.611,2.811,2.982,4.104l-0.433,1.341l-25.598-8.304l0.436-1.34c15.419,4.478,23.767-0.917,25.351-5.805
			c1.458-4.493-1.942-9.254-7.799-11.156c-4.133-1.34-8.279-1.463-12.629-0.175c-6.457,1.916-15.008,7.943-23.009,10.316
			c-5.336,1.58-12.004,1.419-17.975-0.517c-12.052-3.907-19.253-13.39-16.54-21.746c1.762-5.437,6.918-7.253,7.682-9.617
			c0.515-1.578-0.442-2.933-3.095-4.14l0.486-1.499L693.979,479.671z"/>
		<path fill="#CC0000" d="M657.419,536.531c-8.589-4.408-10.413-3.764-13.139,1.545l-1.826-0.937l10.29-20.053l1.826,0.936
			c-2.829,5.253-2.293,7.111,6.402,11.577l57.551,29.537l2.687-5.232c3.103-6.045,1.052-9.986-8.212-14.929l0.604-1.179
			l16.643,8.544l-18.84,36.715l-16.645-8.544l0.606-1.179c9.311,4.594,13.772,4.089,16.877-1.956l2.723-5.308L657.419,536.531z"/>
		<path fill="#CC0000" d="M687.188,620.949c-9.284,11.992-30.974,4.324-47.672-8.6c-16.987-13.146-29.509-32.059-20.271-43.984
			c8.827-11.402,29.734-5.286,47.67,8.601C683.619,589.891,696.478,608.959,687.188,620.949z M622.586,570.947
			c-6.342,8.194,3.91,19.588,22.612,34.064c21.47,16.616,33.019,20.626,38.649,13.354c5.936-7.668-2.573-18.55-22.614-34.062
			C639.762,567.688,628.217,563.676,622.586,570.947z"/>
		<path fill="#CC0000" d="M582.963,623.902c-4.14-5.028-7.121-6.172-10.323-3.538l-1.302-1.585l14.074-11.589l1.305,1.586
			c-3.122,2.726-2.292,5.952,1.468,10.519l34.673,42.122c3.68,4.475,5.712,5.771,7.184,4.559c0.703-0.58,1.05-2.113,1.088-3.242
			l1.602,1.031l-2.734,15.066l-1.085,0.896L582.963,623.902z"/>
		<path fill="#CC0000" d="M595.705,680.811c6.013,9.619,5.394,19.262-1.565,23.609c-7.445,4.659-16.408-1.551-20.568-8.206
			c-3.836-6.142-4.517-12.551-2.175-22.56c-11.88-3.53-18.324-7.9-23.247-15.783c-6.333-10.133-5.916-21.351,0.971-25.656
			c6.955-4.35,16.894-0.175,23.034,9.652c4.413,7.062,5.646,14.978,3.934,24.591C585.783,669.933,591.55,674.155,595.705,680.811z
			 M568.058,646.567c-6.015-9.622-12.874-13.874-17.721-10.846c-3.936,2.463-3.874,8.972,0.089,15.318
			c4.158,6.652,9.285,9.855,22.706,14.131C574.125,659.564,572.532,653.73,568.058,646.567z M578.677,693.591
			c4.412,7.063,10.225,10.265,14.159,7.804c3.796-2.372,3.777-8.341,0.003-14.381c-2.877-4.605-7.962-8.83-18.337-12.305
			C573.269,681.029,574.711,687.246,578.677,693.591z"/>
		<path fill="#CC0000" d="M534.677,732.253c8.706-4.896,10.464-21.235,4.691-41.106l-0.25-0.156
			c-0.815,4.715-2.948,7.894-6.282,9.366c-6.673,2.942-15.568-3.684-20.779-15.499c-5.795-13.141-7.569-29.9,1.605-33.945
			c8.644-3.81,20.079,6.314,28.356,25.086c12.608,28.598,7.032,53.74-6.467,58.242L534.677,732.253z M534.188,677.337
			c-7.302-16.559-14.521-24.719-19.831-22.377c-4.09,1.803-3.79,8.658,0.743,18.928c6.525,14.797,13.422,22.434,18.272,20.296
			c2.276-1.002,3.77-3.375,4.572-7.293C536.838,683.557,535.891,681.204,534.188,677.337z"/>
		<path fill="#CC0000" d="M497.6,681.248l2.535,9.312l-7.648,57.369l-4.079,1.11l-14.182-52.049l-5.838,1.59l-2.378-8.734
			l5.839-1.588l-5.425-19.909l6.715-1.831l5.427,19.912L497.6,681.248z M491.286,733.12l0.162-0.042l5.328-42.229l-15.83,4.314
			L491.286,733.12z"/>
	</g>
</g>
</svg>
